<svg width="102" height="102" viewBox="0 0 102 102" fill="none" xmlns="http://www.w3.org/2000/svg"><path fill-rule="evenodd" clip-rule="evenodd" d="M5.228 55.547C7.56 79.052 27.316 96.969 50.935 97a45.834 45.834 0 0 0 17.96-3.626c21.758-9.192 33.016-33.371 26.049-55.94-6.968-22.57-29.897-36.192-53.05-31.518-23.152 4.674-39 26.126-36.668 49.63Zm.838-13.617c4.254-21.412 23.04-36.837 44.87-36.843A45.472 45.472 0 0 1 83.305 18.49c15.436 15.437 17.819 39.628 5.692 57.78-12.126 18.153-35.386 25.211-55.555 16.86-20.17-8.352-31.63-29.788-27.376-51.2Z" fill="url(#a)"/><path fill-rule="evenodd" clip-rule="evenodd" d="M9.81 59.194C13.72 78.845 30.966 93 51.002 93A41.716 41.716 0 0 0 80.696 80.7c14.17-14.167 16.357-36.37 5.227-53.03-11.13-16.66-32.48-23.137-50.991-15.47C16.42 19.867 5.902 39.542 9.81 59.194Zm.378-16.31C14.062 23.416 31.15 9.395 51 9.397a41.324 41.324 0 0 1 29.42 12.189c14.037 14.037 16.202 36.035 5.172 52.54-11.03 16.505-32.182 22.92-50.522 15.322-18.34-7.598-28.758-27.093-24.883-46.562Z" fill="url(#b)"/><path fill-rule="evenodd" clip-rule="evenodd" d="M13.736 58.426C17.278 76.206 32.888 89.007 51.016 89a37.74 37.74 0 0 0 26.855-11.13c12.819-12.82 14.796-32.91 4.722-47.982-10.074-15.073-29.392-20.93-46.14-13.989-16.748 6.942-26.26 24.748-22.717 42.527Zm.384-14.761c3.502-17.601 18.95-30.278 36.897-30.276a37.377 37.377 0 0 1 26.596 11.017c12.69 12.69 14.649 32.577 4.678 47.498-9.97 14.922-29.093 20.723-45.673 13.855-16.58-6.869-26-24.493-22.498-42.094Z" fill="url(#c)"/><circle cx="11" cy="48" r="5" fill="url(#d)"/><circle cx="91" cy="48" r="5" fill="url(#e)"/><path fill-rule="evenodd" clip-rule="evenodd" d="M9.728 92.273c1.82 1.82 4.453 2.727 7.76 2.727 4.093 0 9.214-1.38 15.115-4.117C43.228 85.938 55.13 77.155 66.138 66.15 77.146 55.145 85.926 43.234 90.87 32.612c4.987-10.694 5.464-18.82 1.397-22.887-4.066-4.067-12.188-3.568-22.871 1.405-10.625 4.944-22.528 13.732-33.536 24.733-11.007 11-19.787 22.912-24.73 33.537-4.974 10.68-5.472 18.806-1.402 22.873ZM36.11 36.13C53.845 18.41 73.069 7.38 84.503 7.38h.003c3.16 0 5.725.842 7.494 2.615 8.198 8.202-3.525 33.263-26.132 55.876-17.736 17.715-36.96 28.749-48.393 28.749-3.164 0-5.725-.842-7.498-2.615C1.78 83.804 13.502 58.739 36.11 36.13Z" fill="url(#f)"/><path d="M84.286 12.289a3.82 3.82 0 1 1 5.403 5.401 3.82 3.82 0 0 1-5.403-5.402Z" fill="#172D36"/><path fill-rule="evenodd" clip-rule="evenodd" d="M83.305 16.53a4 4 0 1 0 7.39-3.06 4 4 0 0 0-7.39 3.06Zm1.123-4.103a3.64 3.64 0 1 1 5.143 5.153 3.64 3.64 0 0 1-5.143-5.153Z" fill="url(#g)"/><path d="M88.768 13.234a2.499 2.499 0 1 1-3.536 3.534 2.499 2.499 0 1 1 3.536-3.534Z" fill="url(#h)"/><path d="M84.286 84.288a3.82 3.82 0 1 1 5.403 5.402 3.82 3.82 0 0 1-5.403-5.401Z" fill="#172D36"/><path fill-rule="evenodd" clip-rule="evenodd" d="M83.305 88.53a4 4 0 1 0 7.39-3.06 4 4 0 0 0-7.39 3.06Zm1.123-4.103a3.64 3.64 0 1 1 5.143 5.153 3.64 3.64 0 0 1-5.143-5.153Z" fill="url(#i)"/><path d="M88.768 85.234a2.499 2.499 0 1 1-3.536 3.534 2.499 2.499 0 1 1 3.536-3.534Z" fill="url(#j)"/><path fill-rule="evenodd" clip-rule="evenodd" d="M9.727 9.725C7.907 11.55 7 14.178 7 17.49c0 4.089 1.369 9.21 4.117 15.122 4.945 10.611 13.74 22.519 24.744 33.527 11.005 11.009 22.913 19.789 33.538 24.733 10.683 4.973 18.802 5.468 22.873 1.401 4.07-4.066 3.572-12.193-1.401-22.872-4.945-10.626-13.732-22.53-24.733-33.538C55.136 24.854 43.225 16.074 32.6 11.13 21.916 6.157 13.794 5.658 9.727 9.725ZM65.87 36.112c17.72 17.737 28.75 36.962 28.75 48.396h-.011c0 3.157-.842 5.721-2.605 7.498-8.202 8.199-33.263-3.525-55.876-26.134C18.413 48.135 7.38 28.91 7.38 17.476c0-3.164.842-5.725 2.615-7.498 8.202-8.199 33.267 3.525 55.876 26.134Z" fill="url(#k)"/><path d="M21.49 19a2.5 2.5 0 1 1-1.76.735A2.47 2.47 0 0 1 21.49 19Z" fill="#172D36"/><path fill-rule="evenodd" clip-rule="evenodd" d="M19.41 22.873a2.5 2.5 0 0 1 .34-3.159A2.453 2.453 0 0 1 21.5 19a2.5 2.5 0 1 1-2.09 3.873Zm.965.275a2.025 2.025 0 0 0 2.557-.252v-.01c.379-.375.592-.886.593-1.418a2.025 2.025 0 1 0-3.15 1.68Z" fill="url(#l)"/><path d="M21.49 78a2.5 2.5 0 1 1-1.76.735A2.47 2.47 0 0 1 21.49 78Z" fill="#172D36"/><path fill-rule="evenodd" clip-rule="evenodd" d="M19.41 81.873a2.5 2.5 0 0 1 .34-3.159A2.453 2.453 0 0 1 21.5 78a2.5 2.5 0 1 1-2.09 3.873Zm.965.275a2.025 2.025 0 0 0 2.557-.252v-.01c.379-.376.592-.886.593-1.418a2.025 2.025 0 1 0-3.15 1.68Z" fill="url(#m)"/><path d="M80.49 78a2.5 2.5 0 1 1-1.76.735A2.47 2.47 0 0 1 80.49 78Z" fill="#172D36"/><path fill-rule="evenodd" clip-rule="evenodd" d="M78.41 81.873a2.5 2.5 0 0 1 .34-3.159A2.453 2.453 0 0 1 80.5 78a2.5 2.5 0 1 1-2.09 3.873Zm.965.275a2.025 2.025 0 0 0 2.557-.252v-.01c.379-.376.592-.886.593-1.418a2.025 2.025 0 1 0-3.15 1.68Z" fill="url(#n)"/><path d="M80.49 19a2.5 2.5 0 1 1-1.76.735A2.47 2.47 0 0 1 80.49 19Z" fill="#172D36"/><path fill-rule="evenodd" clip-rule="evenodd" d="M78.41 22.873a2.5 2.5 0 0 1 .34-3.159A2.453 2.453 0 0 1 80.5 19a2.5 2.5 0 1 1-2.09 3.873Zm.965.275a2.025 2.025 0 0 0 2.557-.252v-.01c.379-.375.592-.886.593-1.418a2.025 2.025 0 1 0-3.15 1.68Z" fill="url(#o)"/><path d="M18.896 14.999a3.82 3.82 0 1 1-7.64 0 3.82 3.82 0 0 1 7.64 0Z" fill="#172D36"/><path fill-rule="evenodd" clip-rule="evenodd" d="M14.22 11.077a4 4 0 1 0 1.56 7.846 4 4 0 0 0-1.56-7.846Zm1.484.362a3.634 3.634 0 0 1 2.93 3.56h.006c0 .964-.384 1.89-1.067 2.57a3.634 3.634 0 1 1-1.869-6.13Z" fill="url(#p)"/><path d="M13.256 16.746a2.582 2.582 0 0 1 .928-4.246 2.582 2.582 0 0 0 3.316 3.319 2.585 2.585 0 0 1-4.244.928Z" fill="url(#q)"/><path d="M18.896 86.999a3.82 3.82 0 1 1-7.64 0 3.82 3.82 0 0 1 7.64 0Z" fill="#172D36"/><path fill-rule="evenodd" clip-rule="evenodd" d="M14.22 83.077a4 4 0 1 0 1.56 7.846 4 4 0 0 0-1.56-7.846Zm1.484.362a3.634 3.634 0 0 1 2.93 3.56h.006c0 .964-.384 1.89-1.067 2.57a3.634 3.634 0 1 1-1.869-6.13Z" fill="url(#r)"/><path d="M13.256 88.746a2.582 2.582 0 0 1 .928-4.246 2.582 2.582 0 0 0 3.316 3.319 2.585 2.585 0 0 1-4.244.927Z" fill="url(#s)"/><path d="m49.042 92.93-5.126 1.08 5.126 1.071-1.653 2.538 2.535-1.66 1.083 5.129 1.072-5.128 2.54 1.652-1.642-2.534 5.126-1.08-5.13-1.072 1.656-2.538-2.535 1.656-1.083-5.125-1.072 5.129-2.539-1.653 1.642 2.535Z" fill="#172D36"/><path fill-rule="evenodd" clip-rule="evenodd" d="m49.798 96.265 1.21 5.735 1.198-5.735 3.06 1.99-1.999-3.055L59 93.99l-5.737-1.198 1.996-3.055-3.057 1.995L50.992 86l-1.198 5.735-3.06-1.99 1.999 3.051L43 94.006l5.737 1.202-1.996 3.055 3.057-1.998Zm1.21 3.922-.957-4.514-2.014 1.314 1.314-2.017-4.52-.946 4.52-.953-1.318-2.013 2.018 1.314.942-4.522.956 4.518 2.014-1.317-1.314 2.017 4.52.949-4.52.953 1.318 2.013-2.018-1.314-.941 4.518Z" fill="url(#t)"/><path d="M54.526 12.355c-2.58 1.069-5.54.24-7.228-2.023a6.432 6.432 0 0 1 0-7.664C48.987.405 51.947-.424 54.526.645c-2.332.966-3.858 3.282-3.858 5.855 0 2.573 1.526 4.89 3.858 5.855Z" fill="#172D36"/><path fill-rule="evenodd" clip-rule="evenodd" d="M46 6.5c0 3.531 2.755 6.417 6.206 6.5a6.174 6.174 0 0 0 2.387-.475l.407-.17-.407-.17c-2.262-.94-3.742-3.188-3.742-5.685 0-2.497 1.48-4.745 3.742-5.685L55 .645l-.407-.17A6.173 6.173 0 0 0 52.206 0C48.756.083 46 2.969 46 6.5Zm.67-2.518C47.65 1.76 49.823.34 52.207.366a5.836 5.836 0 0 1 1.841.279c-2.176 1.092-3.556 3.357-3.556 5.837 0 2.48 1.38 4.744 3.556 5.837-2.26.775-4.754.108-6.354-1.7a6.245 6.245 0 0 1-1.022-6.637Z" fill="url(#u)"/><circle cx="50.5" cy="50.5" r="30.5" fill="url(#v)"/><path fill-rule="evenodd" clip-rule="evenodd" d="M66.426 46.857a2.096 2.096 0 0 1-1.4-.529c-7.547-6.705-14.868-6.997-19.956-5.887 2.453 2.037 3.301 5.353 2.112 8.26-1.188 2.906-4.153 4.767-7.385 4.634s-6.023-2.23-6.952-5.223c-.93-2.994.207-6.228 2.83-8.056a.545.545 0 0 1 .052-.043l.104-.072.11-.068c1.944-1.231 16.841-9.86 31.893 3.51.626.559.834 1.43.525 2.198-.31.767-1.074 1.273-1.926 1.276h-.007Zm-1.128 14.13.044-.04h-.03c2.625-1.826 3.762-5.058 2.835-8.05-.927-2.994-3.715-5.09-6.946-5.225-3.231-.134-6.195 1.725-7.385 4.63-1.189 2.906-.342 6.22 2.11 8.257-5.085 1.11-12.406.817-19.956-5.887a2.124 2.124 0 0 0-2.02-.436 2.028 2.028 0 0 0-1.4 1.473 1.958 1.958 0 0 0 .62 1.908C39.57 63.287 45.925 65 51.276 65a27.205 27.205 0 0 0 13.78-3.856l.138-.089.103-.068Zm-7.67-7.066c.48-1.354 1.8-2.261 3.28-2.255v.007c1.508.001 2.84.95 3.286 2.342.447 1.391-.096 2.902-1.338 3.727l-.04.029a3.55 3.55 0 0 1-4.025-.127c-1.174-.871-1.642-2.37-1.162-3.723Zm-14.241-6.859c-.479 1.354-1.797 2.262-3.277 2.258v-.01c-1.505-.007-2.832-.956-3.278-2.345-.446-1.39.093-2.897 1.33-3.725l.037-.025a3.55 3.55 0 0 1 4.023.125c1.174.871 1.643 2.369 1.165 3.722Z" fill="#1E3B48"/><defs><linearGradient id="a" x1="1428.91" y1="-485.243" x2="1521.2" y2="-485.243" gradientUnits="userSpaceOnUse"><stop stop-color="#F4D4A4"/><stop offset=".16" stop-color="#BAA887"/><stop offset=".31" stop-color="#87826E"/><stop offset=".46" stop-color="#5E6359"/><stop offset=".61" stop-color="#3E4B4A"/><stop offset=".75" stop-color="#273A3E"/><stop offset=".88" stop-color="#1A3037"/><stop offset="1" stop-color="#152C35"/></linearGradient><linearGradient id="b" x1="9.003" y1="9.015" x2="9.003" y2="93.004" gradientUnits="userSpaceOnUse"><stop stop-color="#F4D4A4"/><stop offset=".16" stop-color="#BAA887"/><stop offset=".31" stop-color="#87826E"/><stop offset=".46" stop-color="#5E6359"/><stop offset=".61" stop-color="#3E4B4A"/><stop offset=".75" stop-color="#273A3E"/><stop offset=".88" stop-color="#1A3037"/><stop offset="1" stop-color="#152C35"/></linearGradient><linearGradient id="c" x1="51.017" y1="104.731" x2="104.752" y2="50.996" gradientUnits="userSpaceOnUse"><stop stop-color="#F4D4A4"/><stop offset=".16" stop-color="#BAA887"/><stop offset=".31" stop-color="#87826E"/><stop offset=".46" stop-color="#5E6359"/><stop offset=".61" stop-color="#3E4B4A"/><stop offset=".75" stop-color="#273A3E"/><stop offset=".88" stop-color="#1A3037"/><stop offset="1" stop-color="#152C35"/></linearGradient><linearGradient id="d" x1="15.998" y1="53" x2="15.998" y2="43.004" gradientUnits="userSpaceOnUse"><stop stop-color="#E5A87F"/><stop offset=".06" stop-color="#BF9172"/><stop offset=".16" stop-color="#8C7360"/><stop offset=".26" stop-color="#625A51"/><stop offset=".35" stop-color="#414645"/><stop offset=".43" stop-color="#2A383D"/><stop offset=".52" stop-color="#1C3038"/><stop offset=".59" stop-color="#172D36"/></linearGradient><linearGradient id="e" x1="95.998" y1="53" x2="95.998" y2="43.004" gradientUnits="userSpaceOnUse"><stop stop-color="#E5A87F"/><stop offset=".06" stop-color="#BF9172"/><stop offset=".16" stop-color="#8C7360"/><stop offset=".26" stop-color="#625A51"/><stop offset=".35" stop-color="#414645"/><stop offset=".43" stop-color="#2A383D"/><stop offset=".52" stop-color="#1C3038"/><stop offset=".59" stop-color="#172D36"/></linearGradient><linearGradient id="f" x1="106.189" y1="779.668" x2="49.432" y2="834.634" gradientUnits="userSpaceOnUse"><stop stop-color="#F4D4A4"/><stop stop-color="#F4D4A4"/><stop offset=".51" stop-color="#E5A87F"/><stop offset="1" stop-color="#F4D4A4"/></linearGradient><linearGradient id="g" x1="83.001" y1="11" x2="83.001" y2="19" gradientUnits="userSpaceOnUse"><stop stop-color="#E5A87F"/><stop offset=".18" stop-color="#ECBF98"/><stop offset=".51" stop-color="#F7E6C4"/><stop offset="1" stop-color="#E5A87F"/></linearGradient><linearGradient id="h" x1="83.465" y1="15.002" x2="87.001" y2="18.536" gradientUnits="userSpaceOnUse"><stop stop-color="#E5A87F"/><stop offset=".18" stop-color="#ECBF98"/><stop offset=".51" stop-color="#F7E6C4"/><stop offset="1" stop-color="#E5A87F"/></linearGradient><linearGradient id="i" x1="83.001" y1="83" x2="83.001" y2="91" gradientUnits="userSpaceOnUse"><stop stop-color="#E5A87F"/><stop offset=".18" stop-color="#ECBF98"/><stop offset=".51" stop-color="#F7E6C4"/><stop offset="1" stop-color="#E5A87F"/></linearGradient><linearGradient id="j" x1="83.465" y1="87.001" x2="87.001" y2="90.536" gradientUnits="userSpaceOnUse"><stop stop-color="#E5A87F"/><stop offset=".18" stop-color="#ECBF98"/><stop offset=".51" stop-color="#F7E6C4"/><stop offset="1" stop-color="#E5A87F"/></linearGradient><linearGradient id="k" x1="96.418" y1="96.67" x2="96.61" y2="10.971" gradientUnits="userSpaceOnUse"><stop stop-color="#F4D4A4"/><stop stop-color="#F4D4A4"/><stop offset=".51" stop-color="#E5A87F"/><stop offset="1" stop-color="#F4D4A4"/></linearGradient><linearGradient id="l" x1="21.502" y1="17.956" x2="18.006" y2="21.452" gradientUnits="userSpaceOnUse"><stop stop-color="#E5A87F"/><stop offset=".06" stop-color="#BF9172"/><stop offset=".16" stop-color="#8C7360"/><stop offset=".26" stop-color="#625A51"/><stop offset=".35" stop-color="#414645"/><stop offset=".43" stop-color="#2A383D"/><stop offset=".52" stop-color="#1C3038"/><stop offset=".59" stop-color="#172D36"/></linearGradient><linearGradient id="m" x1="21.502" y1="76.956" x2="18.006" y2="80.452" gradientUnits="userSpaceOnUse"><stop stop-color="#E5A87F"/><stop offset=".06" stop-color="#BF9172"/><stop offset=".16" stop-color="#8C7360"/><stop offset=".26" stop-color="#625A51"/><stop offset=".35" stop-color="#414645"/><stop offset=".43" stop-color="#2A383D"/><stop offset=".52" stop-color="#1C3038"/><stop offset=".59" stop-color="#172D36"/></linearGradient><linearGradient id="n" x1="80.502" y1="76.956" x2="77.006" y2="80.452" gradientUnits="userSpaceOnUse"><stop stop-color="#E5A87F"/><stop offset=".06" stop-color="#BF9172"/><stop offset=".16" stop-color="#8C7360"/><stop offset=".26" stop-color="#625A51"/><stop offset=".35" stop-color="#414645"/><stop offset=".43" stop-color="#2A383D"/><stop offset=".52" stop-color="#1C3038"/><stop offset=".59" stop-color="#172D36"/></linearGradient><linearGradient id="o" x1="80.502" y1="17.956" x2="77.006" y2="21.452" gradientUnits="userSpaceOnUse"><stop stop-color="#E5A87F"/><stop offset=".06" stop-color="#BF9172"/><stop offset=".16" stop-color="#8C7360"/><stop offset=".26" stop-color="#625A51"/><stop offset=".35" stop-color="#414645"/><stop offset=".43" stop-color="#2A383D"/><stop offset=".52" stop-color="#1C3038"/><stop offset=".59" stop-color="#172D36"/></linearGradient><linearGradient id="p" x1="19.006" y1="10.998" x2="11.01" y2="10.998" gradientUnits="userSpaceOnUse"><stop stop-color="#E5A87F"/><stop offset=".18" stop-color="#ECBF98"/><stop offset=".51" stop-color="#F7E6C4"/><stop offset="1" stop-color="#E5A87F"/></linearGradient><linearGradient id="q" x1="11.15" y1="14.211" x2="13.735" y2="18.68" gradientUnits="userSpaceOnUse"><stop stop-color="#E5A87F"/><stop offset=".18" stop-color="#ECBF98"/><stop offset=".51" stop-color="#F7E6C4"/><stop offset="1" stop-color="#E5A87F"/></linearGradient><linearGradient id="r" x1="19.006" y1="82.998" x2="11.01" y2="82.998" gradientUnits="userSpaceOnUse"><stop stop-color="#E5A87F"/><stop offset=".18" stop-color="#ECBF98"/><stop offset=".51" stop-color="#F7E6C4"/><stop offset="1" stop-color="#E5A87F"/></linearGradient><linearGradient id="s" x1="11.15" y1="86.211" x2="13.735" y2="90.68" gradientUnits="userSpaceOnUse"><stop stop-color="#E5A87F"/><stop offset=".18" stop-color="#ECBF98"/><stop offset=".51" stop-color="#F7E6C4"/><stop offset="1" stop-color="#E5A87F"/></linearGradient><linearGradient id="t" x1="59.003" y1="85.933" x2="42.999" y2="85.947" gradientUnits="userSpaceOnUse"><stop stop-color="#E5A87F"/><stop offset=".18" stop-color="#ECBF98"/><stop offset=".51" stop-color="#F7E6C4"/><stop offset="1" stop-color="#E5A87F"/></linearGradient><linearGradient id="u" x1="45.85" y1="13.11" x2="55" y2="13.11" gradientUnits="userSpaceOnUse"><stop stop-color="#E5A87F"/><stop offset=".18" stop-color="#ECBF98"/><stop offset=".51" stop-color="#F7E6C4"/><stop offset="1" stop-color="#E5A87F"/></linearGradient><linearGradient id="v" x1="9.057" y1="54.17" x2="55.108" y2="98.898" gradientUnits="userSpaceOnUse"><stop stop-color="#E5A87F"/><stop offset=".18" stop-color="#ECBF98"/><stop offset=".51" stop-color="#F7E6C4"/><stop offset="1" stop-color="#E5A87F"/></linearGradient></defs></svg>